<svg width="9" height="11" viewBox="0 0 9 11" fill="none" xmlns="http://www.w3.org/2000/svg">
<path d="M4.49996 5.50016C5.09579 5.50016 5.58329 5.01266 5.58329 4.41683C5.58329 3.821 5.09579 3.3335 4.49996 3.3335C3.90413 3.3335 3.41663 3.821 3.41663 4.41683C3.41663 5.01266 3.90413 5.50016 4.49996 5.50016ZM4.49996 0.0834961C6.77496 0.0834961 8.83329 1.82766 8.83329 4.52516C8.83329 6.24766 7.50621 8.2735 4.85746 10.6081C4.65163 10.7868 4.34288 10.7868 4.13704 10.6081C1.49371 8.2735 0.166626 6.24766 0.166626 4.52516C0.166626 1.82766 2.22496 0.0834961 4.49996 0.0834961Z" fill="#212121"/>
</svg>
